<svg width="450" height="429" viewBox="0 0 450 429" fill="none" xmlns="http://www.w3.org/2000/svg">
<path d="M225 10.4571C142.545 3.52854 84.5628 77.0179 82.8717 118.698C81.1806 160.378 77.4716 167.799 82.8717 201.577C96.6046 247.507 98.6757 273.78 101.882 320.687C118.652 349.214 130.814 362.776 159.368 380.921C179.387 401.584 193.734 407.744 225 409M80.6049 164.892C43.9449 173.95 56.6187 264.075 98.4711 278.115" stroke="black" stroke-width="5" stroke-linecap="round"/>
<path d="M225 10.4571C307.455 3.52854 365.437 77.0179 367.128 118.698C368.819 160.378 372.528 167.799 367.128 201.577C353.395 247.507 351.324 273.78 348.118 320.687C331.348 349.214 319.186 362.776 290.632 380.921C270.613 401.584 256.266 407.744 225 409M369.395 164.892C406.055 173.95 393.381 264.075 351.529 278.115" stroke="black" stroke-width="5" stroke-linecap="round"/>
<circle cx="162.5" cy="45.5" r="4.5" fill="black"/>
<ellipse cx="189" cy="133.5" rx="5" ry="4.5" fill="black"/>
<circle cx="162.5" cy="160.5" r="4.5" fill="black"/>
<circle cx="113.5" cy="160.5" r="4.5" fill="black"/>
<circle cx="167.5" cy="240.5" r="4.5" fill="black"/>
<circle cx="200.5" cy="268.5" r="4.5" fill="black"/>
<circle cx="225.5" cy="287.5" r="4.5" fill="black"/>
<circle cx="225.5" cy="211.5" r="4.5" fill="black"/>
<circle cx="162.5" cy="334.5" r="4.5" fill="black"/>
<circle cx="225.5" cy="367.5" r="4.5" fill="black"/>
<line x1="95.7782" y1="85.5636" x2="161.138" y2="45.6686" stroke="black" stroke-width="5" stroke-linecap="round" stroke-dasharray="2 8"/>
<line x1="96.6106" y1="85.8758" x2="188.796" y2="132.661" stroke="black" stroke-width="5" stroke-linecap="round" stroke-dasharray="2 8"/>
<line x1="223.5" y1="133.5" x2="188.5" y2="133.5" stroke="black" stroke-width="5" stroke-linecap="round" stroke-dasharray="2 8"/>
<path d="M225 46.5L163.5 46.5" stroke="black" stroke-width="5" stroke-linecap="round" stroke-dasharray="2 8"/>
<line x1="189.483" y1="133.461" x2="162.918" y2="46.9107" stroke="black" stroke-width="5" stroke-linecap="round" stroke-dasharray="2 8"/>
<line x1="96.16" y1="86.3143" x2="113.963" y2="159.223" stroke="black" stroke-width="5" stroke-linecap="round" stroke-dasharray="2 8"/>
<line x1="86.6167" y1="211.33" x2="112.383" y2="160.628" stroke="black" stroke-width="5" stroke-linecap="round" stroke-dasharray="2 8"/>
<line x1="90.7725" y1="220.154" x2="167.324" y2="240.568" stroke="black" stroke-width="5" stroke-linecap="round" stroke-dasharray="2 8"/>
<line x1="162.5" y1="161.5" x2="114.5" y2="161.5" stroke="black" stroke-width="5" stroke-linecap="round" stroke-dasharray="2 8"/>
<line x1="163.569" y1="160.063" x2="225.691" y2="210.271" stroke="black" stroke-width="5" stroke-linecap="round" stroke-dasharray="2 8"/>
<line x1="167.462" y1="240.261" x2="224.505" y2="210.9" stroke="black" stroke-width="5" stroke-linecap="round" stroke-dasharray="2 8"/>
<line x1="168.098" y1="240.629" x2="200.459" y2="268.136" stroke="black" stroke-width="5" stroke-linecap="round" stroke-dasharray="2 8"/>
<line x1="162.74" y1="334.259" x2="200.047" y2="268.973" stroke="black" stroke-width="5" stroke-linecap="round" stroke-dasharray="2 8"/>
<line x1="224.358" y1="288.327" x2="201.135" y2="269.748" stroke="black" stroke-width="5" stroke-linecap="round" stroke-dasharray="2 8"/>
<line x1="227.5" y1="268.5" x2="202.5" y2="268.5" stroke="black" stroke-width="5" stroke-linecap="round" stroke-dasharray="2 8"/>
<line x1="224.711" y1="211.625" x2="201.296" y2="268.491" stroke="black" stroke-width="5" stroke-linecap="round" stroke-dasharray="2 8"/>
<line x1="166.932" y1="241.741" x2="161.784" y2="334.408" stroke="black" stroke-width="5" stroke-linecap="round" stroke-dasharray="2 8"/>
<line x1="167.673" y1="241.717" x2="104.791" y2="320.104" stroke="black" stroke-width="5" stroke-linecap="round" stroke-dasharray="2 8"/>
<line x1="161.543" y1="334.968" x2="104.904" y2="320.808" stroke="black" stroke-width="5" stroke-linecap="round" stroke-dasharray="2 8"/>
<line x1="163.431" y1="334.818" x2="224.116" y2="366.846" stroke="black" stroke-width="5" stroke-linecap="round" stroke-dasharray="2 8"/>
<line x1="162.354" y1="335.833" x2="159.121" y2="377.869" stroke="black" stroke-width="5" stroke-linecap="round" stroke-dasharray="2 8"/>
<line x1="224.877" y1="368.553" x2="159.287" y2="378.644" stroke="black" stroke-width="5" stroke-linecap="round" stroke-dasharray="2 8"/>
<line x1="162.766" y1="159.613" x2="189.071" y2="133.309" stroke="black" stroke-width="5" stroke-linecap="round" stroke-dasharray="2 8"/>
<line x1="230" y1="5" x2="230" y2="420" stroke="black" stroke-width="10" stroke-linecap="round"/>
</svg>
